HIERARCHY
ROOT joint_Root
{
	OFFSET 0.0 0.0 0.0
	CHANNELS 6 Xposition Yposition Zposition Zrotation Xrotation Yrotation 
	JOINT Hips
	{
		OFFSET -17.1583 93.1646 452.98
		CHANNELS 6 Xposition Yposition Zposition Zrotation Xrotation Yrotation 
		JOINT Spine
		{
			OFFSET 15.7357 0.0 0.0
			CHANNELS 6 Xposition Yposition Zposition Zrotation Xrotation Yrotation 
			JOINT Chest
			{
				OFFSET 8.98455 -0.406207 0.0
				CHANNELS 6 Xposition Yposition Zposition Zrotation Xrotation Yrotation 
				JOINT Neck
				{
					OFFSET 16.3773 0.0 0.0
					CHANNELS 6 Xposition Yposition Zposition Zrotation Xrotation Yrotation 
					JOINT Head
					{
						OFFSET 6.45672 0.0 0.0
						CHANNELS 6 Xposition Yposition Zposition Zrotation Xrotation Yrotation 
						End Site
						{
							OFFSET 0.0 0.0 0.0
						}
					}
				}
				JOINT Shoulder_L
				{
					OFFSET 12.9942 -0.242716 4.98039
					CHANNELS 6 Xposition Yposition Zposition Zrotation Xrotation Yrotation 
					JOINT UpperArm_L
					{
						OFFSET 5.34809 0.0 0.0
						CHANNELS 6 Xposition Yposition Zposition Zrotation Xrotation Yrotation 
						JOINT LowerArm_L
						{
							OFFSET 24.3286 1.87007e-05 0.0
							CHANNELS 6 Xposition Yposition Zposition Zrotation Xrotation Yrotation 
							JOINT Hand_L
							{
								OFFSET 22.2916 0.0 0.0
								CHANNELS 6 Xposition Yposition Zposition Zrotation Xrotation Yrotation 
								End Site
								{
									OFFSET 0.0 0.0 0.0
								}
							}
						}
					}
				}
				JOINT Shoulder_R
				{
					OFFSET 12.9945 -0.242716 -4.98039
					CHANNELS 6 Xposition Yposition Zposition Zrotation Xrotation Yrotation 
					JOINT UpperArm_R
					{
						OFFSET -5.34813 0.0 0.0
						CHANNELS 6 Xposition Yposition Zposition Zrotation Xrotation Yrotation 
						JOINT LowerArm_R
						{
							OFFSET -24.3289 0.000322201 0.0
							CHANNELS 6 Xposition Yposition Zposition Zrotation Xrotation Yrotation 
							JOINT Hand_R
							{
								OFFSET -22.2915 -0.000108084 0.0
								CHANNELS 6 Xposition Yposition Zposition Zrotation Xrotation Yrotation 
								End Site
								{
									OFFSET 0.0 0.0 0.0
								}
							}
						}
					}
				}
			}
		}
		JOINT UpperLeg_L
		{
			OFFSET -2.19248 -6.46944 0.0
			CHANNELS 6 Xposition Yposition Zposition Zrotation Xrotation Yrotation 
			JOINT LowerLeg_L
			{
				OFFSET 39.0811 0.0 -1.23785e-05
				CHANNELS 6 Xposition Yposition Zposition Zrotation Xrotation Yrotation 
				JOINT Foot_L
				{
					OFFSET 40.9854 0.0 -1.26872e-05
					CHANNELS 6 Xposition Yposition Zposition Zrotation Xrotation Yrotation 
					JOINT Toes_L
					{
						OFFSET 11.7543 0.0 0.0
						CHANNELS 6 Xposition Yposition Zposition Zrotation Xrotation Yrotation 
						End Site
						{
							OFFSET 0.0 0.0 0.0
						}
					}
				}
			}
		}
		JOINT UpperLeg_R
		{
			OFFSET -2.19251 6.46944 0.0
			CHANNELS 6 Xposition Yposition Zposition Zrotation Xrotation Yrotation 
			JOINT LowerLeg_R
			{
				OFFSET -39.0811 -0.00228153 -0.0401928
				CHANNELS 6 Xposition Yposition Zposition Zrotation Xrotation Yrotation 
				JOINT Foot_R
				{
					OFFSET -40.9854 0.0 0.0
					CHANNELS 6 Xposition Yposition Zposition Zrotation Xrotation Yrotation 
					JOINT Toes_R
					{
						OFFSET -11.7543 0.0 0.0
						CHANNELS 6 Xposition Yposition Zposition Zrotation Xrotation Yrotation 
						End Site
						{
							OFFSET 0.0 0.0 0.0
						}
					}
				}
			}
		}
	}
}
MOTION
Frames:	4
Frame Time:	0.0333333
0.000000 0.000000 0.000000 0.000000 0.000000 -0.000000 -3.182090 91.574400 0.657257 85.085300 -1.844730 7.099190 15.735700 0.000005 -0.000001 89.897100 86.079500 -86.824800 8.984550 -0.406207 -0.000000 0.088300 -0.219714 6.140690 16.377300 -0.000001 -0.000001 10.910600 3.698630 -13.004900 6.456720 -0.000001 -0.000000 -7.935940 6.160860 -20.501400 12.994200 -0.242716 4.980390 -93.379700 8.652410 -68.567800 5.348090 -0.000007 -0.000001 -72.418800 -8.363760 -1.199930 24.328600 0.000019 0.000005 38.464300 -40.126500 -129.051000 22.291600 -0.000001 0.000005 50.433000 4.851630 10.327800 12.994500 -0.242716 -4.980390 87.591400 6.370370 -69.238500 -5.348130 -0.000001 -0.000004 -67.009800 26.071400 -5.218520 -24.328900 0.000322 -0.000009 0.729904 2.570000 -15.882700 -22.291500 -0.000108 -0.000004 -1.531920 5.298430 0.116254 -2.192480 -6.469440 -0.000000 -174.652000 2.798890 0.316622 39.081100 -0.000007 -0.000012 0.412477 -0.751766 28.753600 40.985400 -0.000006 -0.000013 0.694707 2.781090 -77.746100 11.754300 -0.000000 0.000003 -0.000096 0.169231 -9.712820 -2.192510 6.469440 -0.000001 -171.164000 6.580970 -173.065000 -39.081100 -0.002282 -0.040193 0.177121 -0.562064 17.182300 -40.985400 0.000008 0.000006 5.864180 1.459330 -73.102300 -11.754300 -0.000006 -0.000006 -0.010674 0.276273 -5.347730
0.000000 0.000000 0.000000 0.000000 0.000000 -0.000000 -3.185250 91.591400 0.678930 85.112600 -1.764490 6.995460 15.735700 0.000005 -0.000001 90.175700 86.071500 -87.103100 8.984550 -0.406207 -0.000000 0.103264 -0.181175 6.141340 16.377300 -0.000001 -0.000001 10.976200 3.701260 -12.979300 6.456720 -0.000001 -0.000000 -7.962330 6.114740 -20.505500 12.994200 -0.242716 4.980390 -93.401200 8.683800 -68.513600 5.348090 -0.000007 -0.000001 -72.315900 -9.023520 -1.310310 24.328600 0.000019 0.000005 38.302400 -39.966800 -129.121000 22.291600 -0.000001 0.000005 50.367700 4.838660 10.579900 12.994500 -0.242716 -4.980390 87.565700 6.428130 -69.207500 -5.348130 -0.000001 -0.000004 -67.213000 26.269800 -4.949440 -24.328900 0.000322 -0.000009 0.720691 2.566870 -15.710500 -22.291500 -0.000108 -0.000004 -1.697050 5.297800 0.134100 -2.192480 -6.469440 -0.000000 -174.683000 2.881350 0.270825 39.081100 -0.000007 -0.000012 0.409904 -0.750707 28.636700 40.985400 -0.000006 -0.000013 0.693205 2.783040 -77.705800 11.754300 -0.000000 0.000003 -0.000121 0.169640 -9.696180 -2.192510 6.469440 -0.000001 -171.209000 6.671560 -173.095000 -39.081100 -0.002282 -0.040193 0.173008 -0.553322 17.049000 -40.985400 0.000008 0.000006 5.827620 1.523600 -73.047400 -11.754300 -0.000006 -0.000006 -0.010604 0.275764 -5.368550
0.000000 0.000000 0.000000 0.000000 0.000000 -0.000000 -3.188960 91.615300 0.693540 85.179700 -1.705100 6.887630 15.735700 0.000005 -0.000001 90.354500 86.066200 -87.301100 8.984550 -0.406207 -0.000000 0.112821 -0.155064 6.102990 16.377300 -0.000001 -0.000001 11.031500 3.703380 -12.949200 6.456720 -0.000001 -0.000000 -8.032760 6.097050 -20.452100 12.994200 -0.242716 4.980390 -93.420500 8.711340 -68.464300 5.348090 -0.000007 -0.000001 -72.090000 -9.961780 -1.333000 24.328600 0.000019 0.000005 37.978100 -39.561600 -129.209000 22.291600 -0.000001 0.000005 50.158800 4.835380 10.643900 12.994500 -0.242716 -4.980390 87.559500 6.450230 -69.223500 -5.348130 -0.000001 -0.000004 -67.463000 26.427000 -4.695500 -24.328900 0.000322 -0.000009 0.704571 2.552110 -15.461000 -22.291500 -0.000108 -0.000004 -1.810740 5.295370 0.201749 -2.192480 -6.469440 -0.000000 -174.734000 2.853230 0.233797 39.081100 -0.000007 -0.000012 0.401867 -0.741212 28.466500 40.985400 -0.000006 -0.000013 0.702782 2.827180 -77.615400 11.754300 -0.000000 0.000003 -0.000342 0.173192 -9.551920 -2.192510 6.469440 -0.000001 -171.332000 6.867230 -173.145000 -39.081100 -0.002282 -0.040193 0.167965 -0.541027 16.925600 -40.985400 0.000008 0.000006 5.742700 1.733100 -72.907200 -11.754300 -0.000006 -0.000006 -0.010402 0.274287 -5.429000
0.000000 0.000000 0.000000 0.000000 0.000000 -0.000000 -3.191220 91.664600 0.681895 85.276600 -1.643080 6.677760 15.735700 0.000005 -0.000001 90.345200 86.092200 -87.328000 8.984550 -0.406207 -0.000000 0.060741 -0.155616 6.030440 16.377300 -0.000001 -0.000001 11.072700 3.772270 -12.891500 6.456720 -0.000001 -0.000000 -8.105000 6.097730 -20.288200 12.994200 -0.242716 4.980390 -93.444800 8.732620 -68.372500 5.348090 -0.000007 -0.000001 -71.708500 -10.971100 -1.369580 24.328600 0.000019 0.000005 38.139000 -39.121500 -128.785000 22.291600 -0.000001 0.000005 50.043800 4.820680 10.924300 12.994500 -0.242716 -4.980390 87.547500 6.479260 -69.215500 -5.348130 -0.000001 -0.000004 -67.736300 26.420500 -4.488260 -24.328900 0.000322 -0.000009 0.718665 2.660300 -15.144500 -22.291500 -0.000108 -0.000004 -1.839370 5.292910 0.270429 -2.192480 -6.469440 -0.000000 -174.803000 2.748330 0.166495 39.081100 -0.000007 -0.000012 0.398336 -0.744811 28.139500 40.985400 -0.000006 -0.000013 0.733422 2.943050 -77.446200 11.754300 -0.000000 0.000003 -0.000137 0.169904 -9.685460 -2.192510 6.469440 -0.000001 -171.491000 7.064440 -173.261000 -39.081100 -0.002282 -0.040193 0.158366 -0.516495 16.708700 -40.985400 0.000008 0.000006 5.546780 1.996270 -72.768100 -11.754300 -0.000006 -0.000006 -0.010518 0.275139 -5.394160
